<svg xmlns="http://www.w3.org/2000/svg" xmlns:xlink="http://www.w3.org/1999/xlink" width="500" zoomAndPan="magnify" viewBox="0 0 375 374.999991" height="500" preserveAspectRatio="xMidYMid meet" version="1.0"><defs><clipPath id="a7821cb49f"><path d="M 38 103 L 222 103 L 222 243 L 38 243 Z M 38 103 " clip-rule="nonzero"/></clipPath><clipPath id="491a438c5b"><path d="M 35.484375 104.664062 L 170.890625 49.394531 L 240.613281 220.214844 L 105.210938 275.484375 Z M 35.484375 104.664062 " clip-rule="nonzero"/></clipPath><clipPath id="e4db2b5742"><path d="M 35.484375 104.664062 L 170.890625 49.394531 L 240.613281 220.214844 L 105.210938 275.484375 Z M 35.484375 104.664062 " clip-rule="nonzero"/></clipPath><clipPath id="a49ab2b7a1"><path d="M 210 178 L 338 178 L 338 247 L 210 247 Z M 210 178 " clip-rule="nonzero"/></clipPath><clipPath id="1e7e145d78"><path d="M 266.320312 127.746094 L 339.304688 182.925781 L 269.195312 275.65625 L 196.210938 220.476562 Z M 266.320312 127.746094 " clip-rule="nonzero"/></clipPath><clipPath id="2cfd6974c1"><path d="M 339.511719 183.082031 L 266.523438 127.898438 L 196.414062 220.628906 L 269.402344 275.8125 Z M 339.511719 183.082031 " clip-rule="nonzero"/></clipPath></defs><g clip-path="url(#a7821cb49f)"><g clip-path="url(#491a438c5b)"><g clip-path="url(#e4db2b5742)"><path fill="#f8f7da" d="M 192.542969 203.871094 C 189.242188 197.785156 185.285156 191.988281 180.390625 187.070312 C 170.539062 177.152344 157.949219 171.472656 145.058594 166.585938 C 122.941406 158.203125 100.746094 150.019531 78.59375 141.730469 C 94.589844 147.714844 112.71875 148.285156 129.28125 152.335938 C 147.675781 156.839844 166.855469 163.230469 182.082031 174.851562 C 186.890625 178.523438 191.316406 182.695312 195.195312 187.34375 C 203.859375 197.730469 210.191406 211.746094 212.015625 225.546875 C 218.601562 216.589844 221.742188 204.996094 220.964844 193.226562 C 219.394531 169.433594 203.019531 149.101562 182.308594 138.390625 C 155.46875 124.511719 121.726562 123.648438 92.203125 122.742188 C 90.511719 122.691406 88.816406 122.644531 87.121094 122.601562 C 77.960938 122.351562 68.671875 122.144531 59.886719 119.535156 C 51.101562 116.929688 42.722656 111.582031 38.539062 103.425781 C 40.515625 108.710938 40.882812 113.546875 42.859375 118.828125 C 59.058594 162.097656 84.285156 200.707031 124.015625 225.789062 C 136.652344 233.769531 150.546875 240.277344 165.375 242.171875 C 173.21875 243.171875 182.070312 242.828125 190.230469 240.582031 C 193.792969 239.597656 197.046875 238.164062 200.027344 236.40625 C 201.480469 225.421875 197.636719 213.269531 192.542969 203.871094 " fill-opacity="1" fill-rule="nonzero"/></g></g></g><g clip-path="url(#a49ab2b7a1)"><g clip-path="url(#1e7e145d78)"><g clip-path="url(#2cfd6974c1)"><path fill="#f8f7da" d="M 228.078125 217.984375 C 231.066406 214.820312 234.40625 211.9375 238.171875 209.738281 C 245.761719 205.308594 254.324219 203.890625 262.945312 203.003906 C 277.734375 201.484375 292.539062 200.09375 307.335938 198.636719 C 296.652344 199.691406 285.546875 197.109375 274.832031 196.894531 C 262.929688 196.660156 250.246094 197.441406 239.121094 202.046875 C 235.605469 203.5 232.242188 205.316406 229.136719 207.515625 C 222.195312 212.425781 216.082031 219.917969 212.746094 228.007812 C 210.191406 221.503906 210.160156 213.953125 212.53125 206.929688 C 217.328125 192.730469 230.558594 183.019531 244.867188 179.859375 C 263.414062 175.761719 284.054688 180.6875 302.136719 184.90625 C 303.171875 185.148438 304.207031 185.390625 305.246094 185.636719 C 310.851562 186.96875 316.527344 188.339844 322.285156 188.175781 C 328.042969 188.011719 333.996094 186.113281 337.855469 181.835938 C 335.800781 184.726562 334.796875 187.605469 332.742188 190.496094 C 315.914062 214.164062 294.351562 233.546875 266.167969 242.367188 C 257.203125 245.171875 247.710938 246.882812 238.398438 245.640625 C 233.46875 244.980469 228.148438 243.34375 223.554688 240.660156 C 221.550781 239.488281 219.804688 238.089844 218.277344 236.539062 C 219.167969 229.632812 223.464844 222.871094 228.078125 217.984375 " fill-opacity="1" fill-rule="nonzero"/></g></g></g></svg>