<svg xmlns="http://www.w3.org/2000/svg" xmlns:xlink="http://www.w3.org/1999/xlink" width="500" zoomAndPan="magnify" viewBox="0 0 375 374.999991" height="500" preserveAspectRatio="xMidYMid meet" version="1.0"><defs><g/><clipPath id="b48218ff9a"><path d="M 71 104 L 195 104 L 195 199 L 71 199 Z M 71 104 " clip-rule="nonzero"/></clipPath><clipPath id="92e1daa595"><path d="M 69.40625 105.570312 L 160.367188 68.441406 L 207.417969 183.710938 L 116.453125 220.839844 Z M 69.40625 105.570312 " clip-rule="nonzero"/></clipPath><clipPath id="d6c1fee302"><path d="M 69.40625 105.570312 L 160.367188 68.441406 L 207.417969 183.710938 L 116.453125 220.839844 Z M 69.40625 105.570312 " clip-rule="nonzero"/></clipPath><clipPath id="b797a07e02"><path d="M 187 155 L 274 155 L 274 201 L 187 201 Z M 187 155 " clip-rule="nonzero"/></clipPath><clipPath id="919a3dff34"><path d="M 224.972656 121.125 L 274.027344 158.214844 L 226.988281 220.433594 L 177.929688 183.34375 Z M 224.972656 121.125 " clip-rule="nonzero"/></clipPath><clipPath id="2adcb833c3"><path d="M 274.300781 158.421875 L 225.242188 121.332031 L 178.203125 183.550781 L 227.257812 220.640625 Z M 274.300781 158.421875 " clip-rule="nonzero"/></clipPath></defs><g clip-path="url(#b48218ff9a)"><g clip-path="url(#92e1daa595)"><g clip-path="url(#d6c1fee302)"><path fill="#27963c" d="M 175.25 172.433594 C 173.023438 168.332031 170.359375 164.425781 167.058594 161.109375 C 160.417969 154.425781 151.9375 150.597656 143.25 147.304688 C 128.34375 141.65625 113.382812 136.140625 98.453125 130.554688 C 109.234375 134.585938 121.453125 134.96875 132.617188 137.703125 C 145.011719 140.734375 157.9375 145.042969 168.199219 152.875 C 171.441406 155.351562 174.421875 158.160156 177.035156 161.292969 C 182.875 168.292969 187.144531 177.738281 188.375 187.039062 C 192.8125 181.003906 194.925781 173.191406 194.402344 165.257812 C 193.34375 149.222656 182.308594 135.519531 168.351562 128.300781 C 150.265625 118.949219 127.523438 118.367188 107.625 117.757812 C 106.484375 117.722656 105.34375 117.691406 104.203125 117.660156 C 98.027344 117.492188 91.769531 117.351562 85.847656 115.59375 C 79.925781 113.839844 74.28125 110.234375 71.460938 104.738281 C 72.792969 108.300781 73.039062 111.558594 74.371094 115.117188 C 85.289062 144.277344 102.289062 170.300781 129.066406 187.203125 C 137.582031 192.582031 146.945312 196.96875 156.9375 198.246094 C 162.226562 198.917969 168.191406 198.6875 173.691406 197.171875 C 176.089844 196.511719 178.285156 195.542969 180.292969 194.359375 C 181.273438 186.957031 178.683594 178.765625 175.25 172.433594 " fill-opacity="1" fill-rule="nonzero"/></g></g></g><g clip-path="url(#b797a07e02)"><g clip-path="url(#919a3dff34)"><g clip-path="url(#2adcb833c3)"><path fill="#80cc28" d="M 199.203125 181.941406 C 201.214844 179.808594 203.464844 177.867188 206.003906 176.382812 C 211.117188 173.398438 216.890625 172.441406 222.699219 171.84375 C 232.667969 170.820312 242.644531 169.882812 252.613281 168.902344 C 245.414062 169.613281 237.929688 167.871094 230.707031 167.726562 C 222.6875 167.570312 214.140625 168.097656 206.644531 171.199219 C 204.273438 172.179688 202.007812 173.40625 199.914062 174.886719 C 195.238281 178.195312 191.121094 183.242188 188.871094 188.695312 C 187.148438 184.3125 187.125 179.222656 188.726562 174.488281 C 191.957031 164.921875 200.875 158.378906 210.519531 156.246094 C 223.015625 153.488281 236.925781 156.804688 249.109375 159.648438 C 249.808594 159.8125 250.507812 159.976562 251.203125 160.140625 C 254.980469 161.039062 258.808594 161.964844 262.6875 161.851562 C 266.570312 161.742188 270.582031 160.464844 273.179688 157.582031 C 271.796875 159.527344 271.121094 161.46875 269.734375 163.414062 C 258.394531 179.367188 243.867188 192.425781 224.871094 198.371094 C 218.828125 200.261719 212.433594 201.414062 206.15625 200.578125 C 202.835938 200.132812 199.25 199.027344 196.152344 197.222656 C 194.804688 196.429688 193.628906 195.488281 192.597656 194.445312 C 193.199219 189.792969 196.09375 185.234375 199.203125 181.941406 " fill-opacity="1" fill-rule="nonzero"/></g></g></g><g fill="#27963c" fill-opacity="1"><g transform="translate(66.162004, 262.223921)"><g><path d="M 5.90625 -2.09375 C 5.90625 -1.800781 5.847656 -1.53125 5.734375 -1.28125 C 5.628906 -1.03125 5.476562 -0.804688 5.28125 -0.609375 C 5.09375 -0.421875 4.867188 -0.269531 4.609375 -0.15625 C 4.359375 -0.0507812 4.085938 0 3.796875 0 L 0.59375 0 L 0.59375 -7.5 L 3.515625 -7.5 C 3.773438 -7.5 4.015625 -7.445312 4.234375 -7.34375 C 4.460938 -7.25 4.660156 -7.117188 4.828125 -6.953125 C 5.003906 -6.785156 5.140625 -6.585938 5.234375 -6.359375 C 5.335938 -6.128906 5.390625 -5.878906 5.390625 -5.609375 C 5.390625 -5.285156 5.332031 -4.992188 5.21875 -4.734375 C 5.113281 -4.472656 4.941406 -4.25 4.703125 -4.0625 C 5.109375 -3.914062 5.410156 -3.660156 5.609375 -3.296875 C 5.804688 -2.941406 5.90625 -2.539062 5.90625 -2.09375 Z M 1.6875 -4.46875 C 1.96875 -4.457031 2.226562 -4.453125 2.46875 -4.453125 L 3.53125 -4.453125 C 3.800781 -4.453125 4.023438 -4.550781 4.203125 -4.75 C 4.390625 -4.957031 4.484375 -5.203125 4.484375 -5.484375 C 4.484375 -5.765625 4.390625 -6.003906 4.203125 -6.203125 C 4.023438 -6.398438 3.800781 -6.5 3.53125 -6.5 L 1.6875 -6.5 Z M 1.6875 -1.03125 C 1.738281 -1.019531 1.847656 -1.015625 2.015625 -1.015625 L 3.796875 -1.015625 C 3.941406 -1.015625 4.078125 -1.046875 4.203125 -1.109375 C 4.335938 -1.171875 4.453125 -1.253906 4.546875 -1.359375 C 4.648438 -1.472656 4.726562 -1.601562 4.78125 -1.75 C 4.84375 -1.90625 4.875 -2.066406 4.875 -2.234375 C 4.875 -2.398438 4.84375 -2.554688 4.78125 -2.703125 C 4.726562 -2.847656 4.648438 -2.972656 4.546875 -3.078125 C 4.453125 -3.191406 4.335938 -3.28125 4.203125 -3.34375 C 4.078125 -3.40625 3.941406 -3.4375 3.796875 -3.4375 L 1.6875 -3.4375 Z M 1.6875 -1.03125 "/></g></g></g><g fill="#27963c" fill-opacity="1"><g transform="translate(74.628115, 262.223921)"><g><path d="M 6.78125 0 L 5.390625 0 L 3.03125 -3.234375 L 1.71875 -3.234375 L 1.71875 0 L 0.609375 0 L 0.609375 -7.5 L 3.65625 -7.5 C 3.957031 -7.5 4.238281 -7.441406 4.5 -7.328125 C 4.757812 -7.210938 4.988281 -7.0625 5.1875 -6.875 C 5.382812 -6.6875 5.535156 -6.460938 5.640625 -6.203125 C 5.753906 -5.941406 5.8125 -5.664062 5.8125 -5.375 C 5.8125 -5.125 5.769531 -4.890625 5.6875 -4.671875 C 5.613281 -4.453125 5.507812 -4.253906 5.375 -4.078125 C 5.238281 -3.898438 5.070312 -3.742188 4.875 -3.609375 C 4.6875 -3.484375 4.484375 -3.390625 4.265625 -3.328125 Z M 3.65625 -4.28125 C 3.800781 -4.28125 3.941406 -4.304688 4.078125 -4.359375 C 4.210938 -4.421875 4.328125 -4.5 4.421875 -4.59375 C 4.515625 -4.695312 4.585938 -4.816406 4.640625 -4.953125 C 4.703125 -5.085938 4.734375 -5.234375 4.734375 -5.390625 C 4.734375 -5.546875 4.703125 -5.691406 4.640625 -5.828125 C 4.585938 -5.960938 4.515625 -6.082031 4.421875 -6.1875 C 4.328125 -6.289062 4.210938 -6.367188 4.078125 -6.421875 C 3.941406 -6.484375 3.800781 -6.515625 3.65625 -6.515625 L 1.71875 -6.515625 L 1.71875 -4.265625 Z M 3.65625 -4.28125 "/></g></g></g><g fill="#27963c" fill-opacity="1"><g transform="translate(83.686848, 262.223921)"><g><path d="M 2.625 -6.59375 L 2.625 -0.90625 L 3.171875 -0.90625 L 3.171875 0 L 0.96875 0 L 0.96875 -0.90625 L 1.515625 -0.90625 L 1.515625 -6.59375 L 0.96875 -6.59375 L 0.96875 -7.5 L 3.171875 -7.5 L 3.171875 -6.59375 Z M 2.625 -6.59375 "/></g></g></g><g fill="#27963c" fill-opacity="1"><g transform="translate(89.962345, 262.223921)"><g><path d="M 7.0625 -7.5 L 7.0625 0 L 5.9375 0 L 1.75 -5.75 L 1.75 0 L 0.59375 0 L 0.59375 -7.5 L 1.75 -7.5 L 5.9375 -1.71875 L 5.9375 -7.5 Z M 7.0625 -7.5 "/></g></g></g><g fill="#27963c" fill-opacity="1"><g transform="translate(99.751278, 262.223921)"><g><path d="M 4.78125 -4.015625 L 6.828125 -4.015625 L 6.828125 -1.265625 C 6.484375 -0.859375 6.070312 -0.523438 5.59375 -0.265625 C 5.113281 -0.015625 4.59375 0.109375 4.03125 0.109375 C 3.519531 0.109375 3.039062 0.0078125 2.59375 -0.1875 C 2.144531 -0.394531 1.753906 -0.675781 1.421875 -1.03125 C 1.085938 -1.382812 0.820312 -1.789062 0.625 -2.25 C 0.4375 -2.71875 0.34375 -3.21875 0.34375 -3.75 C 0.34375 -4.269531 0.4375 -4.765625 0.625 -5.234375 C 0.820312 -5.703125 1.085938 -6.109375 1.421875 -6.453125 C 1.753906 -6.804688 2.144531 -7.082031 2.59375 -7.28125 C 3.039062 -7.488281 3.519531 -7.59375 4.03125 -7.59375 C 4.5 -7.59375 4.941406 -7.5 5.359375 -7.3125 C 5.773438 -7.132812 6.144531 -6.894531 6.46875 -6.59375 L 5.8125 -5.765625 C 5.582031 -6.015625 5.3125 -6.210938 5 -6.359375 C 4.695312 -6.515625 4.375 -6.59375 4.03125 -6.59375 C 3.664062 -6.59375 3.328125 -6.515625 3.015625 -6.359375 C 2.703125 -6.210938 2.425781 -6.007812 2.1875 -5.75 C 1.957031 -5.488281 1.773438 -5.1875 1.640625 -4.84375 C 1.515625 -4.5 1.453125 -4.132812 1.453125 -3.75 C 1.453125 -3.351562 1.515625 -2.984375 1.640625 -2.640625 C 1.773438 -2.304688 1.957031 -2.007812 2.1875 -1.75 C 2.425781 -1.488281 2.703125 -1.285156 3.015625 -1.140625 C 3.328125 -0.992188 3.664062 -0.921875 4.03125 -0.921875 C 4.363281 -0.921875 4.671875 -0.984375 4.953125 -1.109375 C 5.242188 -1.242188 5.503906 -1.421875 5.734375 -1.640625 L 5.734375 -2.984375 L 4.78125 -2.984375 Z M 4.78125 -4.015625 "/></g></g></g><g fill="#27963c" fill-opacity="1"><g transform="translate(109.381481, 262.223921)"><g><path d="M 2.625 -6.59375 L 2.625 -0.90625 L 3.171875 -0.90625 L 3.171875 0 L 0.96875 0 L 0.96875 -0.90625 L 1.515625 -0.90625 L 1.515625 -6.59375 L 0.96875 -6.59375 L 0.96875 -7.5 L 3.171875 -7.5 L 3.171875 -6.59375 Z M 2.625 -6.59375 "/></g></g></g><g fill="#27963c" fill-opacity="1"><g transform="translate(115.65698, 262.223921)"><g><path d="M 7.0625 -7.5 L 7.0625 0 L 5.9375 0 L 1.75 -5.75 L 1.75 0 L 0.59375 0 L 0.59375 -7.5 L 1.75 -7.5 L 5.9375 -1.71875 L 5.9375 -7.5 Z M 7.0625 -7.5 "/></g></g></g><g fill="#27963c" fill-opacity="1"><g transform="translate(125.445915, 262.223921)"><g><path d="M 4.78125 -4.015625 L 6.828125 -4.015625 L 6.828125 -1.265625 C 6.484375 -0.859375 6.070312 -0.523438 5.59375 -0.265625 C 5.113281 -0.015625 4.59375 0.109375 4.03125 0.109375 C 3.519531 0.109375 3.039062 0.0078125 2.59375 -0.1875 C 2.144531 -0.394531 1.753906 -0.675781 1.421875 -1.03125 C 1.085938 -1.382812 0.820312 -1.789062 0.625 -2.25 C 0.4375 -2.71875 0.34375 -3.21875 0.34375 -3.75 C 0.34375 -4.269531 0.4375 -4.765625 0.625 -5.234375 C 0.820312 -5.703125 1.085938 -6.109375 1.421875 -6.453125 C 1.753906 -6.804688 2.144531 -7.082031 2.59375 -7.28125 C 3.039062 -7.488281 3.519531 -7.59375 4.03125 -7.59375 C 4.5 -7.59375 4.941406 -7.5 5.359375 -7.3125 C 5.773438 -7.132812 6.144531 -6.894531 6.46875 -6.59375 L 5.8125 -5.765625 C 5.582031 -6.015625 5.3125 -6.210938 5 -6.359375 C 4.695312 -6.515625 4.375 -6.59375 4.03125 -6.59375 C 3.664062 -6.59375 3.328125 -6.515625 3.015625 -6.359375 C 2.703125 -6.210938 2.425781 -6.007812 2.1875 -5.75 C 1.957031 -5.488281 1.773438 -5.1875 1.640625 -4.84375 C 1.515625 -4.5 1.453125 -4.132812 1.453125 -3.75 C 1.453125 -3.351562 1.515625 -2.984375 1.640625 -2.640625 C 1.773438 -2.304688 1.957031 -2.007812 2.1875 -1.75 C 2.425781 -1.488281 2.703125 -1.285156 3.015625 -1.140625 C 3.328125 -0.992188 3.664062 -0.921875 4.03125 -0.921875 C 4.363281 -0.921875 4.671875 -0.984375 4.953125 -1.109375 C 5.242188 -1.242188 5.503906 -1.421875 5.734375 -1.640625 L 5.734375 -2.984375 L 4.78125 -2.984375 Z M 4.78125 -4.015625 "/></g></g></g><g fill="#27963c" fill-opacity="1"><g transform="translate(135.076118, 262.223921)"><g/></g></g><g fill="#27963c" fill-opacity="1"><g transform="translate(139.954703, 262.223921)"><g><path d="M 4.125 -0.921875 C 4.53125 -0.921875 4.90625 -1.019531 5.25 -1.21875 C 5.601562 -1.414062 5.898438 -1.675781 6.140625 -2 L 6.921875 -1.265625 C 6.578125 -0.859375 6.164062 -0.523438 5.6875 -0.265625 C 5.207031 -0.015625 4.6875 0.109375 4.125 0.109375 C 3.613281 0.109375 3.132812 0.0078125 2.6875 -0.1875 C 2.238281 -0.394531 1.847656 -0.675781 1.515625 -1.03125 C 1.179688 -1.382812 0.914062 -1.796875 0.71875 -2.265625 C 0.53125 -2.734375 0.4375 -3.226562 0.4375 -3.75 C 0.4375 -4.269531 0.53125 -4.765625 0.71875 -5.234375 C 0.914062 -5.703125 1.179688 -6.109375 1.515625 -6.453125 C 1.847656 -6.804688 2.238281 -7.082031 2.6875 -7.28125 C 3.132812 -7.488281 3.613281 -7.59375 4.125 -7.59375 C 4.59375 -7.59375 5.035156 -7.5 5.453125 -7.3125 C 5.878906 -7.125 6.257812 -6.878906 6.59375 -6.578125 L 5.9375 -5.75 C 5.695312 -5.988281 5.421875 -6.1875 5.109375 -6.34375 C 4.804688 -6.507812 4.476562 -6.59375 4.125 -6.59375 C 3.769531 -6.59375 3.429688 -6.515625 3.109375 -6.359375 C 2.796875 -6.210938 2.523438 -6.007812 2.296875 -5.75 C 2.066406 -5.488281 1.878906 -5.1875 1.734375 -4.84375 C 1.597656 -4.5 1.53125 -4.132812 1.53125 -3.75 C 1.53125 -3.351562 1.597656 -2.984375 1.734375 -2.640625 C 1.878906 -2.304688 2.066406 -2.007812 2.296875 -1.75 C 2.523438 -1.488281 2.796875 -1.285156 3.109375 -1.140625 C 3.429688 -0.992188 3.769531 -0.921875 4.125 -0.921875 Z M 4.125 -0.921875 "/></g></g></g><g fill="#27963c" fill-opacity="1"><g transform="translate(149.330916, 262.223921)"><g><path d="M 4.078125 -7.609375 C 4.578125 -7.609375 5.050781 -7.503906 5.5 -7.296875 C 5.957031 -7.085938 6.351562 -6.804688 6.6875 -6.453125 C 7.019531 -6.109375 7.285156 -5.703125 7.484375 -5.234375 C 7.679688 -4.765625 7.78125 -4.269531 7.78125 -3.75 C 7.78125 -3.226562 7.679688 -2.734375 7.484375 -2.265625 C 7.285156 -1.796875 7.015625 -1.382812 6.671875 -1.03125 C 6.335938 -0.6875 5.945312 -0.410156 5.5 -0.203125 C 5.050781 -0.00390625 4.570312 0.09375 4.0625 0.09375 C 3.550781 0.09375 3.070312 -0.00390625 2.625 -0.203125 C 2.175781 -0.410156 1.78125 -0.6875 1.4375 -1.03125 C 1.101562 -1.382812 0.835938 -1.796875 0.640625 -2.265625 C 0.453125 -2.734375 0.359375 -3.226562 0.359375 -3.75 C 0.359375 -4.269531 0.453125 -4.765625 0.640625 -5.234375 C 0.835938 -5.703125 1.101562 -6.109375 1.4375 -6.453125 C 1.78125 -6.804688 2.175781 -7.085938 2.625 -7.296875 C 3.082031 -7.503906 3.566406 -7.609375 4.078125 -7.609375 Z M 4.078125 -0.953125 C 4.429688 -0.953125 4.765625 -1.023438 5.078125 -1.171875 C 5.390625 -1.316406 5.660156 -1.515625 5.890625 -1.765625 C 6.128906 -2.015625 6.316406 -2.3125 6.453125 -2.65625 C 6.585938 -3 6.65625 -3.363281 6.65625 -3.75 C 6.65625 -4.144531 6.585938 -4.507812 6.453125 -4.84375 C 6.316406 -5.1875 6.128906 -5.484375 5.890625 -5.734375 C 5.660156 -5.984375 5.390625 -6.179688 5.078125 -6.328125 C 4.765625 -6.472656 4.429688 -6.546875 4.078125 -6.546875 C 3.710938 -6.546875 3.375 -6.472656 3.0625 -6.328125 C 2.75 -6.179688 2.472656 -5.984375 2.234375 -5.734375 C 2.003906 -5.484375 1.820312 -5.1875 1.6875 -4.84375 C 1.550781 -4.507812 1.484375 -4.144531 1.484375 -3.75 C 1.484375 -3.363281 1.550781 -3 1.6875 -2.65625 C 1.820312 -2.3125 2.003906 -2.015625 2.234375 -1.765625 C 2.472656 -1.515625 2.75 -1.316406 3.0625 -1.171875 C 3.375 -1.023438 3.710938 -0.953125 4.078125 -0.953125 Z M 4.078125 -0.953125 "/></g></g></g><g fill="#27963c" fill-opacity="1"><g transform="translate(159.564331, 262.223921)"><g><path d="M 6.984375 -7.5 L 8.09375 -7.5 L 8.09375 0 L 6.984375 0 L 6.984375 -5.75 L 4.796875 -2.734375 L 3.953125 -2.734375 L 1.75 -5.75 L 1.75 0 L 0.640625 0 L 0.640625 -7.5 L 1.75 -7.5 L 4.375 -3.890625 Z M 6.984375 -7.5 "/></g></g></g><g fill="#27963c" fill-opacity="1"><g transform="translate(170.411534, 262.223921)"><g><path d="M 6.984375 -7.5 L 8.09375 -7.5 L 8.09375 0 L 6.984375 0 L 6.984375 -5.75 L 4.796875 -2.734375 L 3.953125 -2.734375 L 1.75 -5.75 L 1.75 0 L 0.640625 0 L 0.640625 -7.5 L 1.75 -7.5 L 4.375 -3.890625 Z M 6.984375 -7.5 "/></g></g></g><g fill="#27963c" fill-opacity="1"><g transform="translate(181.258737, 262.223921)"><g><path d="M 6.109375 -2.65625 C 6.109375 -2.269531 6.035156 -1.910156 5.890625 -1.578125 C 5.742188 -1.242188 5.546875 -0.953125 5.296875 -0.703125 C 5.046875 -0.453125 4.753906 -0.253906 4.421875 -0.109375 C 4.097656 0.0351562 3.742188 0.109375 3.359375 0.109375 C 2.984375 0.109375 2.628906 0.0351562 2.296875 -0.109375 C 1.960938 -0.253906 1.671875 -0.453125 1.421875 -0.703125 C 1.179688 -0.953125 0.988281 -1.242188 0.84375 -1.578125 C 0.695312 -1.910156 0.625 -2.269531 0.625 -2.65625 L 0.625 -7.5 L 1.71875 -7.5 L 1.71875 -2.65625 C 1.71875 -2.425781 1.757812 -2.207031 1.84375 -2 C 1.9375 -1.800781 2.054688 -1.625 2.203125 -1.46875 C 2.347656 -1.3125 2.519531 -1.1875 2.71875 -1.09375 C 2.925781 -1 3.140625 -0.953125 3.359375 -0.953125 C 3.585938 -0.953125 3.800781 -1 4 -1.09375 C 4.195312 -1.1875 4.367188 -1.3125 4.515625 -1.46875 C 4.660156 -1.625 4.773438 -1.800781 4.859375 -2 C 4.953125 -2.207031 5 -2.425781 5 -2.65625 L 5 -7.5 L 6.109375 -7.5 Z M 6.109375 -2.65625 "/></g></g></g><g fill="#27963c" fill-opacity="1"><g transform="translate(190.084642, 262.223921)"><g><path d="M 7.0625 -7.5 L 7.0625 0 L 5.9375 0 L 1.75 -5.75 L 1.75 0 L 0.59375 0 L 0.59375 -7.5 L 1.75 -7.5 L 5.9375 -1.71875 L 5.9375 -7.5 Z M 7.0625 -7.5 "/></g></g></g><g fill="#27963c" fill-opacity="1"><g transform="translate(199.87357, 262.223921)"><g><path d="M 2.625 -6.59375 L 2.625 -0.90625 L 3.171875 -0.90625 L 3.171875 0 L 0.96875 0 L 0.96875 -0.90625 L 1.515625 -0.90625 L 1.515625 -6.59375 L 0.96875 -6.59375 L 0.96875 -7.5 L 3.171875 -7.5 L 3.171875 -6.59375 Z M 2.625 -6.59375 "/></g></g></g><g fill="#27963c" fill-opacity="1"><g transform="translate(206.149062, 262.223921)"><g><path d="M 2.078125 -6.5 L 0.046875 -6.5 L 0.046875 -7.5 L 5.21875 -7.5 L 5.21875 -6.5 L 3.1875 -6.5 L 3.1875 0 L 2.078125 0 Z M 2.078125 -6.5 "/></g></g></g><g fill="#27963c" fill-opacity="1"><g transform="translate(213.78971, 262.223921)"><g><path d="M 2.625 -6.59375 L 2.625 -0.90625 L 3.171875 -0.90625 L 3.171875 0 L 0.96875 0 L 0.96875 -0.90625 L 1.515625 -0.90625 L 1.515625 -6.59375 L 0.96875 -6.59375 L 0.96875 -7.5 L 3.171875 -7.5 L 3.171875 -6.59375 Z M 2.625 -6.59375 "/></g></g></g><g fill="#27963c" fill-opacity="1"><g transform="translate(220.065202, 262.223921)"><g><path d="M 5.171875 -7.5 L 5.171875 -6.5 L 1.6875 -6.5 L 1.6875 -4.46875 L 4.796875 -4.46875 L 4.796875 -3.4375 L 1.6875 -3.4375 L 1.6875 -1.03125 L 5.171875 -1.03125 L 5.171875 0 L 0.59375 0 L 0.59375 -7.5 Z M 5.171875 -7.5 "/></g></g></g><g fill="#27963c" fill-opacity="1"><g transform="translate(227.991584, 262.223921)"><g><path d="M 5.59375 -2.109375 C 5.59375 -1.785156 5.53125 -1.488281 5.40625 -1.21875 C 5.28125 -0.945312 5.09375 -0.707031 4.84375 -0.5 C 4.351562 -0.09375 3.726562 0.109375 2.96875 0.109375 C 2.375 0.109375 1.835938 -0.0078125 1.359375 -0.25 C 0.878906 -0.5 0.53125 -0.828125 0.3125 -1.234375 L 1.25 -1.71875 C 1.382812 -1.46875 1.601562 -1.273438 1.90625 -1.140625 C 2.21875 -1.003906 2.570312 -0.9375 2.96875 -0.9375 C 3.988281 -0.9375 4.5 -1.328125 4.5 -2.109375 C 4.5 -2.253906 4.472656 -2.378906 4.421875 -2.484375 C 4.367188 -2.585938 4.289062 -2.6875 4.1875 -2.78125 C 3.9375 -2.988281 3.484375 -3.179688 2.828125 -3.359375 C 2.429688 -3.453125 2.09375 -3.554688 1.8125 -3.671875 C 1.539062 -3.796875 1.3125 -3.941406 1.125 -4.109375 C 0.6875 -4.460938 0.46875 -4.9375 0.46875 -5.53125 C 0.46875 -5.832031 0.523438 -6.109375 0.640625 -6.359375 C 0.753906 -6.617188 0.914062 -6.84375 1.125 -7.03125 C 1.34375 -7.21875 1.597656 -7.359375 1.890625 -7.453125 C 2.191406 -7.554688 2.515625 -7.609375 2.859375 -7.609375 C 3.378906 -7.609375 3.851562 -7.507812 4.28125 -7.3125 C 4.71875 -7.113281 5.050781 -6.832031 5.28125 -6.46875 L 4.421875 -5.9375 C 4.210938 -6.1875 3.972656 -6.363281 3.703125 -6.46875 C 3.441406 -6.570312 3.160156 -6.625 2.859375 -6.625 C 2.648438 -6.625 2.457031 -6.585938 2.28125 -6.515625 C 2.101562 -6.441406 1.957031 -6.359375 1.84375 -6.265625 C 1.738281 -6.179688 1.664062 -6.078125 1.625 -5.953125 C 1.582031 -5.828125 1.5625 -5.691406 1.5625 -5.546875 C 1.5625 -5.460938 1.570312 -5.367188 1.59375 -5.265625 C 1.625 -5.171875 1.691406 -5.070312 1.796875 -4.96875 C 1.898438 -4.875 2.054688 -4.773438 2.265625 -4.671875 C 2.472656 -4.578125 2.75 -4.488281 3.09375 -4.40625 C 3.519531 -4.289062 3.875 -4.171875 4.15625 -4.046875 C 4.445312 -3.929688 4.691406 -3.789062 4.890625 -3.625 C 5.359375 -3.238281 5.59375 -2.734375 5.59375 -2.109375 Z M 5.59375 -2.109375 "/></g></g></g><g fill="#27963c" fill-opacity="1"><g transform="translate(236.246034, 262.223921)"><g/></g></g><g fill="#27963c" fill-opacity="1"><g transform="translate(241.124613, 262.223921)"><g><path d="M 2.078125 -6.5 L 0.046875 -6.5 L 0.046875 -7.5 L 5.21875 -7.5 L 5.21875 -6.5 L 3.1875 -6.5 L 3.1875 0 L 2.078125 0 Z M 2.078125 -6.5 "/></g></g></g><g fill="#27963c" fill-opacity="1"><g transform="translate(248.765261, 262.223921)"><g><path d="M 4.078125 -7.609375 C 4.578125 -7.609375 5.050781 -7.503906 5.5 -7.296875 C 5.957031 -7.085938 6.351562 -6.804688 6.6875 -6.453125 C 7.019531 -6.109375 7.285156 -5.703125 7.484375 -5.234375 C 7.679688 -4.765625 7.78125 -4.269531 7.78125 -3.75 C 7.78125 -3.226562 7.679688 -2.734375 7.484375 -2.265625 C 7.285156 -1.796875 7.015625 -1.382812 6.671875 -1.03125 C 6.335938 -0.6875 5.945312 -0.410156 5.5 -0.203125 C 5.050781 -0.00390625 4.570312 0.09375 4.0625 0.09375 C 3.550781 0.09375 3.070312 -0.00390625 2.625 -0.203125 C 2.175781 -0.410156 1.78125 -0.6875 1.4375 -1.03125 C 1.101562 -1.382812 0.835938 -1.796875 0.640625 -2.265625 C 0.453125 -2.734375 0.359375 -3.226562 0.359375 -3.75 C 0.359375 -4.269531 0.453125 -4.765625 0.640625 -5.234375 C 0.835938 -5.703125 1.101562 -6.109375 1.4375 -6.453125 C 1.78125 -6.804688 2.175781 -7.085938 2.625 -7.296875 C 3.082031 -7.503906 3.566406 -7.609375 4.078125 -7.609375 Z M 4.078125 -0.953125 C 4.429688 -0.953125 4.765625 -1.023438 5.078125 -1.171875 C 5.390625 -1.316406 5.660156 -1.515625 5.890625 -1.765625 C 6.128906 -2.015625 6.316406 -2.3125 6.453125 -2.65625 C 6.585938 -3 6.65625 -3.363281 6.65625 -3.75 C 6.65625 -4.144531 6.585938 -4.507812 6.453125 -4.84375 C 6.316406 -5.1875 6.128906 -5.484375 5.890625 -5.734375 C 5.660156 -5.984375 5.390625 -6.179688 5.078125 -6.328125 C 4.765625 -6.472656 4.429688 -6.546875 4.078125 -6.546875 C 3.710938 -6.546875 3.375 -6.472656 3.0625 -6.328125 C 2.75 -6.179688 2.472656 -5.984375 2.234375 -5.734375 C 2.003906 -5.484375 1.820312 -5.1875 1.6875 -4.84375 C 1.550781 -4.507812 1.484375 -4.144531 1.484375 -3.75 C 1.484375 -3.363281 1.550781 -3 1.6875 -2.65625 C 1.820312 -2.3125 2.003906 -2.015625 2.234375 -1.765625 C 2.472656 -1.515625 2.75 -1.316406 3.0625 -1.171875 C 3.375 -1.023438 3.710938 -0.953125 4.078125 -0.953125 Z M 4.078125 -0.953125 "/></g></g></g><g fill="#27963c" fill-opacity="1"><g transform="translate(258.998669, 262.223921)"><g><path d="M 4.78125 -4.015625 L 6.828125 -4.015625 L 6.828125 -1.265625 C 6.484375 -0.859375 6.070312 -0.523438 5.59375 -0.265625 C 5.113281 -0.015625 4.59375 0.109375 4.03125 0.109375 C 3.519531 0.109375 3.039062 0.0078125 2.59375 -0.1875 C 2.144531 -0.394531 1.753906 -0.675781 1.421875 -1.03125 C 1.085938 -1.382812 0.820312 -1.789062 0.625 -2.25 C 0.4375 -2.71875 0.34375 -3.21875 0.34375 -3.75 C 0.34375 -4.269531 0.4375 -4.765625 0.625 -5.234375 C 0.820312 -5.703125 1.085938 -6.109375 1.421875 -6.453125 C 1.753906 -6.804688 2.144531 -7.082031 2.59375 -7.28125 C 3.039062 -7.488281 3.519531 -7.59375 4.03125 -7.59375 C 4.5 -7.59375 4.941406 -7.5 5.359375 -7.3125 C 5.773438 -7.132812 6.144531 -6.894531 6.46875 -6.59375 L 5.8125 -5.765625 C 5.582031 -6.015625 5.3125 -6.210938 5 -6.359375 C 4.695312 -6.515625 4.375 -6.59375 4.03125 -6.59375 C 3.664062 -6.59375 3.328125 -6.515625 3.015625 -6.359375 C 2.703125 -6.210938 2.425781 -6.007812 2.1875 -5.75 C 1.957031 -5.488281 1.773438 -5.1875 1.640625 -4.84375 C 1.515625 -4.5 1.453125 -4.132812 1.453125 -3.75 C 1.453125 -3.351562 1.515625 -2.984375 1.640625 -2.640625 C 1.773438 -2.304688 1.957031 -2.007812 2.1875 -1.75 C 2.425781 -1.488281 2.703125 -1.285156 3.015625 -1.140625 C 3.328125 -0.992188 3.664062 -0.921875 4.03125 -0.921875 C 4.363281 -0.921875 4.671875 -0.984375 4.953125 -1.109375 C 5.242188 -1.242188 5.503906 -1.421875 5.734375 -1.640625 L 5.734375 -2.984375 L 4.78125 -2.984375 Z M 4.78125 -4.015625 "/></g></g></g><g fill="#27963c" fill-opacity="1"><g transform="translate(268.628865, 262.223921)"><g><path d="M 5.171875 -7.5 L 5.171875 -6.5 L 1.6875 -6.5 L 1.6875 -4.46875 L 4.796875 -4.46875 L 4.796875 -3.4375 L 1.6875 -3.4375 L 1.6875 -1.03125 L 5.171875 -1.03125 L 5.171875 0 L 0.59375 0 L 0.59375 -7.5 Z M 5.171875 -7.5 "/></g></g></g><g fill="#27963c" fill-opacity="1"><g transform="translate(276.555247, 262.223921)"><g><path d="M 2.078125 -6.5 L 0.046875 -6.5 L 0.046875 -7.5 L 5.21875 -7.5 L 5.21875 -6.5 L 3.1875 -6.5 L 3.1875 0 L 2.078125 0 Z M 2.078125 -6.5 "/></g></g></g><g fill="#27963c" fill-opacity="1"><g transform="translate(284.195895, 262.223921)"><g><path d="M 5.90625 -7.5 L 7 -7.5 L 7 0 L 5.90625 0 L 5.90625 -3.4375 L 1.703125 -3.4375 L 1.703125 0 L 0.59375 0 L 0.59375 -7.5 L 1.703125 -7.5 L 1.703125 -4.46875 L 5.90625 -4.46875 Z M 5.90625 -7.5 "/></g></g></g><g fill="#27963c" fill-opacity="1"><g transform="translate(293.963669, 262.223921)"><g><path d="M 5.171875 -7.5 L 5.171875 -6.5 L 1.6875 -6.5 L 1.6875 -4.46875 L 4.796875 -4.46875 L 4.796875 -3.4375 L 1.6875 -3.4375 L 1.6875 -1.03125 L 5.171875 -1.03125 L 5.171875 0 L 0.59375 0 L 0.59375 -7.5 Z M 5.171875 -7.5 "/></g></g></g><g fill="#27963c" fill-opacity="1"><g transform="translate(301.890051, 262.223921)"><g><path d="M 6.78125 0 L 5.390625 0 L 3.03125 -3.234375 L 1.71875 -3.234375 L 1.71875 0 L 0.609375 0 L 0.609375 -7.5 L 3.65625 -7.5 C 3.957031 -7.5 4.238281 -7.441406 4.5 -7.328125 C 4.757812 -7.210938 4.988281 -7.0625 5.1875 -6.875 C 5.382812 -6.6875 5.535156 -6.460938 5.640625 -6.203125 C 5.753906 -5.941406 5.8125 -5.664062 5.8125 -5.375 C 5.8125 -5.125 5.769531 -4.890625 5.6875 -4.671875 C 5.613281 -4.453125 5.507812 -4.253906 5.375 -4.078125 C 5.238281 -3.898438 5.070312 -3.742188 4.875 -3.609375 C 4.6875 -3.484375 4.484375 -3.390625 4.265625 -3.328125 Z M 3.65625 -4.28125 C 3.800781 -4.28125 3.941406 -4.304688 4.078125 -4.359375 C 4.210938 -4.421875 4.328125 -4.5 4.421875 -4.59375 C 4.515625 -4.695312 4.585938 -4.816406 4.640625 -4.953125 C 4.703125 -5.085938 4.734375 -5.234375 4.734375 -5.390625 C 4.734375 -5.546875 4.703125 -5.691406 4.640625 -5.828125 C 4.585938 -5.960938 4.515625 -6.082031 4.421875 -6.1875 C 4.328125 -6.289062 4.210938 -6.367188 4.078125 -6.421875 C 3.941406 -6.484375 3.800781 -6.515625 3.65625 -6.515625 L 1.71875 -6.515625 L 1.71875 -4.265625 Z M 3.65625 -4.28125 "/></g></g></g><g fill="#27963c" fill-opacity="1"><g transform="translate(108.029315, 244.498094)"><g><path d="M 13.625 -20 L 21.984375 0 L 17.359375 0 L 15.546875 -4.296875 L 7.046875 -4.296875 L 5.28125 0 L 0.625 0 L 8.96875 -20 Z M 13.9375 -8.1875 L 11.3125 -14.46875 L 8.6875 -8.1875 Z M 13.9375 -8.1875 "/></g></g></g><g fill="#27963c" fill-opacity="1"><g transform="translate(132.03927, 244.498094)"><g><path d="M 11.234375 -11.3125 L 18.796875 -11.3125 L 18.796875 -3.984375 C 17.660156 -2.546875 16.40625 -1.460938 15.03125 -0.734375 C 13.664062 -0.00390625 12.226562 0.359375 10.71875 0.359375 C 9.363281 0.359375 8.082031 0.0820312 6.875 -0.46875 C 5.675781 -1.019531 4.632812 -1.765625 3.75 -2.703125 C 2.863281 -3.648438 2.160156 -4.75 1.640625 -6 C 1.128906 -7.25 0.875 -8.578125 0.875 -9.984375 C 0.875 -11.398438 1.128906 -12.726562 1.640625 -13.96875 C 2.160156 -15.207031 2.863281 -16.296875 3.75 -17.234375 C 4.632812 -18.179688 5.675781 -18.925781 6.875 -19.46875 C 8.082031 -20.019531 9.363281 -20.296875 10.71875 -20.296875 C 12 -20.296875 13.207031 -20.054688 14.34375 -19.578125 C 15.488281 -19.109375 16.597656 -18.328125 17.671875 -17.234375 L 15.1875 -14.21875 C 14.394531 -14.957031 13.648438 -15.453125 12.953125 -15.703125 C 12.253906 -15.953125 11.519531 -16.078125 10.75 -16.078125 C 9.957031 -16.078125 9.21875 -15.914062 8.53125 -15.59375 C 7.84375 -15.28125 7.242188 -14.847656 6.734375 -14.296875 C 6.234375 -13.753906 5.835938 -13.113281 5.546875 -12.375 C 5.253906 -11.632812 5.109375 -10.835938 5.109375 -9.984375 C 5.109375 -9.140625 5.253906 -8.347656 5.546875 -7.609375 C 5.835938 -6.878906 6.234375 -6.238281 6.734375 -5.6875 C 7.242188 -5.132812 7.84375 -4.695312 8.53125 -4.375 C 9.21875 -4.050781 9.957031 -3.890625 10.75 -3.890625 C 11.445312 -3.890625 12.140625 -4.015625 12.828125 -4.265625 C 13.515625 -4.523438 14.207031 -4.945312 14.90625 -5.53125 L 14.90625 -7.703125 L 11.234375 -7.703125 Z M 11.234375 -11.3125 "/></g></g></g><g fill="#27963c" fill-opacity="1"><g transform="translate(153.199677, 244.498094)"><g><path d="M 15.71875 -14.046875 C 15.71875 -13.410156 15.628906 -12.804688 15.453125 -12.234375 C 15.273438 -11.660156 15.023438 -11.132812 14.703125 -10.65625 C 14.378906 -10.175781 13.992188 -9.75 13.546875 -9.375 C 13.097656 -9.007812 12.609375 -8.71875 12.078125 -8.5 L 18.703125 0 L 13.71875 0 L 7.53125 -8.078125 L 5.609375 -8.078125 L 5.609375 0 L 1.328125 0 L 1.328125 -20 L 9.96875 -20 C 10.75 -20 11.492188 -19.84375 12.203125 -19.53125 C 12.910156 -19.226562 13.519531 -18.804688 14.03125 -18.265625 C 14.550781 -17.734375 14.960938 -17.101562 15.265625 -16.375 C 15.566406 -15.65625 15.71875 -14.878906 15.71875 -14.046875 Z M 9.421875 -11.96875 C 9.972656 -11.96875 10.441406 -12.164062 10.828125 -12.5625 C 11.222656 -12.96875 11.421875 -13.460938 11.421875 -14.046875 C 11.421875 -14.617188 11.222656 -15.101562 10.828125 -15.5 C 10.441406 -15.90625 9.972656 -16.109375 9.421875 -16.109375 L 5.609375 -16.109375 L 5.609375 -11.96875 Z M 9.421875 -11.96875 "/></g></g></g><g fill="#27963c" fill-opacity="1"><g transform="translate(173.993309, 244.498094)"><g><path d="M 10.78125 -20.296875 C 12.132812 -20.296875 13.410156 -20.019531 14.609375 -19.46875 C 15.816406 -18.925781 16.867188 -18.179688 17.765625 -17.234375 C 18.660156 -16.296875 19.363281 -15.207031 19.875 -13.96875 C 20.394531 -12.726562 20.65625 -11.398438 20.65625 -9.984375 C 20.65625 -8.597656 20.394531 -7.273438 19.875 -6.015625 C 19.363281 -4.753906 18.660156 -3.648438 17.765625 -2.703125 C 16.867188 -1.765625 15.816406 -1.019531 14.609375 -0.46875 C 13.410156 0.0820312 12.132812 0.359375 10.78125 0.359375 C 9.425781 0.359375 8.144531 0.0820312 6.9375 -0.46875 C 5.738281 -1.019531 4.695312 -1.765625 3.8125 -2.703125 C 2.925781 -3.648438 2.222656 -4.753906 1.703125 -6.015625 C 1.191406 -7.273438 0.9375 -8.597656 0.9375 -9.984375 C 0.9375 -11.398438 1.191406 -12.726562 1.703125 -13.96875 C 2.222656 -15.207031 2.925781 -16.296875 3.8125 -17.234375 C 4.695312 -18.179688 5.738281 -18.925781 6.9375 -19.46875 C 8.144531 -20.019531 9.425781 -20.296875 10.78125 -20.296875 Z M 10.78125 -3.890625 C 11.550781 -3.890625 12.273438 -4.050781 12.953125 -4.375 C 13.628906 -4.695312 14.21875 -5.132812 14.71875 -5.6875 C 15.226562 -6.238281 15.628906 -6.878906 15.921875 -7.609375 C 16.210938 -8.347656 16.359375 -9.140625 16.359375 -9.984375 C 16.359375 -10.835938 16.210938 -11.632812 15.921875 -12.375 C 15.628906 -13.113281 15.226562 -13.757812 14.71875 -14.3125 C 14.21875 -14.875 13.628906 -15.3125 12.953125 -15.625 C 12.273438 -15.945312 11.550781 -16.109375 10.78125 -16.109375 C 10.007812 -16.109375 9.285156 -15.945312 8.609375 -15.625 C 7.929688 -15.3125 7.335938 -14.875 6.828125 -14.3125 C 6.316406 -13.757812 5.914062 -13.113281 5.625 -12.375 C 5.332031 -11.632812 5.1875 -10.835938 5.1875 -9.984375 C 5.1875 -9.140625 5.332031 -8.347656 5.625 -7.609375 C 5.914062 -6.878906 6.316406 -6.238281 6.828125 -5.6875 C 7.335938 -5.132812 7.929688 -4.695312 8.609375 -4.375 C 9.285156 -4.050781 10.007812 -3.890625 10.78125 -3.890625 Z M 10.78125 -3.890625 "/></g></g></g><g fill="#27963c" fill-opacity="1"><g transform="translate(196.987593, 244.498094)"><g><path d="M 14.765625 -20 L 19.046875 -20 L 19.046875 0 L 14.765625 0 L 14.765625 -8.609375 L 5.59375 -8.609375 L 5.59375 0 L 1.328125 0 L 1.328125 -20 L 5.59375 -20 L 5.59375 -12.5 L 14.765625 -12.5 Z M 14.765625 -20 "/></g></g></g><g fill="#27963c" fill-opacity="1"><g transform="translate(218.768698, 244.498094)"><g><path d="M 1.359375 -20 L 13.859375 -20 L 13.859375 -16.109375 L 5.640625 -16.109375 L 5.640625 -12.5 L 12.875 -12.5 L 12.875 -8.609375 L 5.640625 -8.609375 L 5.640625 -3.859375 L 13.859375 -3.859375 L 13.859375 0 L 1.359375 0 Z M 1.359375 -20 "/></g></g></g><g fill="#27963c" fill-opacity="1"><g transform="translate(235.38675, 244.498094)"><g><path d="M 5.609375 -3.859375 L 13.828125 -3.859375 L 13.828125 0 L 1.328125 0 L 1.328125 -20 L 5.609375 -20 Z M 5.609375 -3.859375 "/></g></g></g><g fill="#27963c" fill-opacity="1"><g transform="translate(250.904474, 244.498094)"><g><path d="M 9.96875 -20 C 10.75 -20 11.488281 -19.84375 12.1875 -19.53125 C 12.882812 -19.226562 13.488281 -18.804688 14 -18.265625 C 14.519531 -17.734375 14.929688 -17.101562 15.234375 -16.375 C 15.535156 -15.65625 15.6875 -14.878906 15.6875 -14.046875 C 15.6875 -13.222656 15.535156 -12.445312 15.234375 -11.71875 C 14.929688 -11 14.519531 -10.363281 14 -9.8125 C 13.488281 -9.269531 12.882812 -8.84375 12.1875 -8.53125 C 11.488281 -8.226562 10.75 -8.078125 9.96875 -8.078125 L 5.59375 -8.078125 L 5.59375 0 L 1.328125 0 L 1.328125 -20 Z M 9.390625 -11.96875 C 9.941406 -11.96875 10.414062 -12.164062 10.8125 -12.5625 C 11.21875 -12.96875 11.421875 -13.460938 11.421875 -14.046875 C 11.421875 -14.617188 11.21875 -15.101562 10.8125 -15.5 C 10.414062 -15.90625 9.941406 -16.109375 9.390625 -16.109375 L 5.59375 -16.109375 L 5.59375 -11.96875 Z M 9.390625 -11.96875 "/></g></g></g></svg>